<?xml version="1.0"?>
<svg xmlns="http://www.w3.org/2000/svg" viewBox="0 0 64 64" width="512" height="512"><g id="Email-2" data-name="Email"><rect x="16" y="12" width="32" height="2"/><rect x="16" y="16" width="32" height="2"/><rect x="16" y="8" width="32" height="2"/><path d="M61.707,26.293,54,18.586V5a3,3,0,0,0-3-3H13a3,3,0,0,0-3,3V18.586L2.293,26.293A1,1,0,0,0,2,27V59a3,3,0,0,0,3,3H59a3,3,0,0,0,3-3V27A1,1,0,0,0,61.707,26.293ZM59.586,27,54,32.586V21.414ZM13,4H51a1,1,0,0,1,1,1V34.586l-1.281,1.281a18.975,18.975,0,0,0-37.438,0L12,34.586V5A1,1,0,0,1,13,4ZM49,39A17,17,0,1,1,32,22,17.019,17.019,0,0,1,49,39ZM10,32.586,4.414,27,10,21.414ZM59,60H5a1,1,0,0,1-1-1V29.414l8.293,8.293A1,1,0,0,0,13,38h.051c-.018.333-.051.662-.051,1a19,19,0,0,0,38,0c0-.338-.033-.667-.051-1H51a1,1,0,0,0,.707-.293L60,29.414V59A1,1,0,0,1,59,60Z"/><path d="M38.6,43.653,35,42.307V40.188A6,6,0,0,0,38,35V34a1,1,0,0,0,1-1V31a7,7,0,0,0-14,0v2a1,1,0,0,0,1,1v1a6,6,0,0,0,3,5.188v2.12l-3.61,1.356A6.765,6.765,0,0,0,21,50v1a1,1,0,0,0,1,1H42a1,1,0,0,0,1-1V49.99A6.8,6.8,0,0,0,38.6,43.653ZM27,31a5,5,0,0,1,10,0v1h-.586l-1.707-1.707a1,1,0,0,0-1.262-.125L30.7,32H27Zm1,3h3a1.006,1.006,0,0,0,.555-.168l2.318-1.545,1.42,1.42A1,1,0,0,0,36,34v1a4,4,0,0,1-8,0Zm4,7a6,6,0,0,0,1-.09v1.676l-1,1-1-1V40.91A6,6,0,0,0,32,41Zm-9,9a4.767,4.767,0,0,1,3.092-4.464l3.656-1.373,1.545,1.544a1,1,0,0,0,1.414,0l1.545-1.545L37.9,45.527A4.79,4.79,0,0,1,41,50Z"/></g></svg>
