<svg height="512pt" viewBox="0 -56 512 511" width="512pt" xmlns="http://www.w3.org/2000/svg"><path d="m372 80.5h-312c-33.085938 0-60 26.914062-60 60v199.050781c0 33.082031 26.914062 60 60 60h312c33.085938 0 60-26.917969 60-60v-199.050781c0-33.085938-26.914062-60-60-60zm-6.488281 40-149.511719 111.210938-149.511719-111.210938zm6.488281 239.050781h-312c-11.027344 0-20-8.972656-20-20v-188.902343l176 130.910156 176-130.910156v188.902343c0 11.027344-8.972656 20-20 20zm140-299.050781v199.050781c0 26.070313-16.722656 48.300781-40 56.558594v-255.609375c0-11.027344-8.972656-20-20-20h-368.558594c8.253906-23.277344 30.484375-40 56.558594-40h312c33.085938 0 60 26.914062 60 60zm0 0"/></svg>